<?xml version="1.0" encoding="UTF-8"?>
<svg width="24px" height="24px" viewBox="0 0 24 24" version="1.1" xmlns="http://www.w3.org/2000/svg" xmlns:xlink="http://www.w3.org/1999/xlink">
    <!-- Generator: Sketch 51.2 (57519) - http://www.bohemiancoding.com/sketch -->
    <title>user-circle.1</title>
    <desc>Created with Sketch.</desc>
    <defs></defs>
    <g id="Symbols" stroke="none" stroke-width="1" fill="none" fill-rule="evenodd">
        <g id="user-circle.1" fill="#A6ADB7" fill-rule="nonzero">
            <path d="M12,0 C5.37256452,0 0,5.37256452 0,12 C0,18.6274355 5.37256452,24 12,24 C18.6274355,24 24,18.6274355 24,12 C24,5.37256452 18.6274355,0 12,0 Z M6.58064516,9.67741935 C6.58064516,6.6843871 9.00696774,4.25806452 12,4.25806452 C14.9930323,4.25806452 17.4193548,6.6843871 17.4193548,9.67741935 C17.4193548,12.6704516 14.9930323,15.0967742 12,15.0967742 C9.00696774,15.0967742 6.58064516,12.6704516 6.58064516,9.67741935 Z M19.568129,18.0320806 C15.6804194,22.8906774 8.32417742,22.8964355 4.43182258,18.0320806 C5.27433871,17.1761129 6.44603226,16.6451613 7.74193548,16.6451613 L8.62277419,16.6451613 C10.7532581,17.6775484 13.2435,17.6790968 15.3772258,16.6451613 L16.2580645,16.6451613 C17.5539677,16.6451613 18.7256613,17.1761129 19.568129,18.0320806 Z" id="Shape"></path>
        </g>
    </g>
</svg>