<?xml version="1.0" encoding="UTF-8"?>
<svg width="16px" height="16px" viewBox="0 0 16 16" version="1.1" xmlns="http://www.w3.org/2000/svg" xmlns:xlink="http://www.w3.org/1999/xlink">
    <!-- Generator: Sketch 51.2 (57519) - http://www.bohemiancoding.com/sketch -->
    <title>addresses_grey</title>
    <desc>Created with Sketch.</desc>
    <defs></defs>
    <g id="UI-Design" stroke="none" stroke-width="1" fill="none" fill-rule="evenodd">
        <g id="addresses_grey" fill="#A9AEB5" fill-rule="nonzero">
            <path d="M11.89312,7.0112 C11.9562448,6.66808 11.9999952,6.328704 11.9999952,5.999952 C11.9999952,2.691152 9.3087952,-4.8e-05 5.9999952,-4.8e-05 C2.6911952,-4.8e-05 -4.8e-06,2.691152 -4.8e-06,5.999952 C-4.8e-06,10.158672 5.4163152,15.623152 5.6462352,15.853712 C5.743736,15.9512112 5.8718672,15.9999616 5.9999792,15.9999616 C6.1280912,15.9999616 6.2562352,15.9512112 6.3537232,15.853712 C6.421848,15.7855872 6.9518512,15.24872 7.6555952,14.430592 C7.2499632,13.708096 6.9999632,12.886848 6.9999632,12.000032 C6.9999632,9.275072 9.1818832,7.068832 11.8930832,7.011232 L11.89312,7.0112 Z M6,9 C4.34624,9 3,7.653744 3,6 C3,4.346256 4.346256,3 6,3 C7.653744,3 9,4.346256 9,6 C9,7.653744 7.653744,9 6,9 Z" id="Shape"></path>
            <path d="M12,8 C9.7912,8 8,9.7912 8,12 C8,14.2088 9.7912,16 12,16 C14.2088,16 16,14.2088 16,12 C16,9.7912 14.2088,8 12,8 Z M13.85376,11.35376 L11.85376,13.35376 C11.7562592,13.4512592 11.628128,13.5000096 11.500016,13.5000096 C11.371904,13.5000096 11.24376,13.4512592 11.146272,13.35376 L10.146272,12.35376 C9.951264,12.158752 9.951264,11.841888 10.146272,11.64688 C10.34128,11.451872 10.658144,11.451872 10.853152,11.64688 L11.499408,12.293136 L13.145648,10.646896 C13.340656,10.451888 13.65752,10.451888 13.852528,10.646896 C14.046896,10.841904 14.048784,11.158144 13.8537781,11.353776 L13.85376,11.35376 Z" id="Shape"></path>
        </g>
    </g>
</svg>