<?xml version="1.0" encoding="UTF-8"?>
<svg width="17px" height="16px" viewBox="0 0 17 16" version="1.1" xmlns="http://www.w3.org/2000/svg" xmlns:xlink="http://www.w3.org/1999/xlink">
    <!-- Generator: Sketch 51.2 (57519) - http://www.bohemiancoding.com/sketch -->
    <title>deals_grey</title>
    <desc>Created with Sketch.</desc>
    <defs></defs>
    <g id="UI-Design" stroke="none" stroke-width="1" fill="none" fill-rule="evenodd">
        <g id="deals_grey" fill="#A9AEB5" fill-rule="nonzero">
            <path d="M6.552,6.66666667 C6.552,5.9047619 6.40021333,5.52380952 6.13234286,5.52380952 C5.98055619,5.52380952 5.86597333,5.59970286 5.82728381,5.79017905 C5.75139048,5.98065524 5.71270095,6.24701714 5.71270095,6.66667429 C5.71270095,7.04762667 5.75139048,7.35269333 5.82728381,7.54316952 C5.90317714,7.73364571 6.01776,7.80953905 6.13234286,7.80953905 C6.4001981,7.80953905 6.552,7.42858667 6.552,6.6666819 L6.552,6.66666667 Z M10.6278095,8.19047619 C10.4760229,8.19047619 10.36144,8.26636952 10.3227505,8.45684571 C10.2468571,8.6473219 10.2081676,8.91368381 10.2081676,9.33334095 C10.2081676,9.71429333 10.2468571,10.01936 10.3227505,10.2098362 C10.3986438,10.4003124 10.5132267,10.4762057 10.6278095,10.4762057 C10.894179,10.4762057 11.0474667,10.0952533 11.0474667,9.33334857 C11.0861562,8.57144381 10.9328838,8.19049143 10.6278095,8.19049143 L10.6278095,8.19047619 Z M15.8853333,9.82887619 C16.2662857,9.40921905 16.7618286,8.80060952 16.7618286,8 C16.7618286,7.19939048 16.2662857,6.59078095 15.8853333,6.17112381 C15.7707505,6.01933714 15.5802743,5.79017143 15.5430705,5.71428571 C15.504381,5.59970286 15.5430705,5.29462857 15.5430705,5.10415238 C15.58176,4.53272381 15.6189638,3.77081905 15.1621181,3.12350476 C14.7052724,2.47619048 13.9433752,2.28571429 13.3719467,2.17112381 C13.1814705,2.13243429 12.8764038,2.05654095 12.8005181,1.98064762 C12.7246248,1.90475429 12.5713524,1.63838476 12.4582552,1.48510476 C12.1531962,0.989561905 11.7350552,0.342247619 10.9731505,0.113066667 C10.7826743,0.0371733333 10.5921981,0.0371733333 10.3630171,0.0371733333 C9.83029333,0.0371733333 9.37193143,0.227649524 8.99097905,0.37943619 C8.80050286,0.455329524 8.49543619,0.569912381 8.38084571,0.569912381 C8.26625524,0.569912381 7.96118857,0.455329524 7.77071238,0.37943619 C7.35105524,0.227649524 6.89421714,0.0371733333 6.39867429,0.0371733333 C6.2081981,0.0371733333 5.97901714,0.0758628571 5.78854095,0.113066667 C5.02663619,0.37943619 4.60697905,1.02674286 4.30343619,1.48510476 C4.18885333,1.63689143 4.03706667,1.9047619 3.96117333,1.98064762 C3.88528,2.05654095 3.58022095,2.13243429 3.38974476,2.17112381 C2.85702095,2.32291048 2.09511619,2.47618286 1.59957333,3.12350476 C1.14273524,3.77081905 1.17991619,4.53272381 1.21862095,5.10415238 C1.21862095,5.29462857 1.25731048,5.63687619 1.21862095,5.71428571 C1.17993143,5.79017905 0.989455238,6.05654857 0.876358095,6.17112381 C0.495405714,6.59078095 -0.000137142857,7.19939048 -0.000137142857,8 C-0.000137142857,8.80060952 0.495405714,9.40921905 0.876358095,9.82887619 C0.990940952,9.98066286 1.18141714,10.2098286 1.21862095,10.2857143 C1.25731048,10.4002971 1.21862095,10.7053714 1.21862095,10.8958476 C1.17993143,11.4672762 1.14272762,12.229181 1.59957333,12.8764952 C2.05641905,13.5238095 2.81831619,13.7142857 3.38974476,13.8288762 C3.58022095,13.8675657 3.88528762,13.943459 3.96117333,14.0193524 C4.03706667,14.0952457 4.19033905,14.3616152 4.30343619,14.5148952 C4.60849524,15.0104381 5.02663619,15.6577524 5.78854095,15.8869333 C5.97901714,15.9628267 6.16949333,15.9628267 6.39867429,15.9628267 C6.9313981,15.9628267 7.38976,15.7723505 7.77071238,15.6205638 C7.96118857,15.5446705 8.26625524,15.4300876 8.38084571,15.4300876 C8.49543619,15.4300876 8.80050286,15.5446705 8.99097905,15.6205638 C9.41063619,15.7723505 9.86747429,15.9628267 10.3630171,15.9628267 C10.5534933,15.9628267 10.7826743,15.9241371 10.9731505,15.8869333 C11.7350552,15.6205638 12.1547124,14.9732571 12.4582552,14.5148952 C12.5728381,14.3631086 12.7246248,14.0952381 12.8005181,14.0193524 C12.8764114,13.943459 13.1814705,13.8675657 13.3719467,13.8288762 C13.9046705,13.6770895 14.6665752,13.5238171 15.1621181,12.8764952 C15.6189562,12.229181 15.5817752,11.4672762 15.5430705,10.8958476 C15.5430705,10.7053714 15.504381,10.3631238 15.5430705,10.2857143 C15.5802731,10.209821 15.7707505,9.98065524 15.8853333,9.82887619 Z M4.99085714,8.22918095 C4.72448762,7.8869181 4.60990476,7.35268571 4.60990476,6.66666667 C4.60990476,5.25744762 5.10544762,4.57142857 6.13371429,4.57142857 C6.62925714,4.57142857 7.01020952,4.76190476 7.27657143,5.10415238 C7.54294095,5.44641524 7.69622857,5.98064762 7.69622857,6.66666667 C7.69622857,7.35268571 7.58164571,7.88540952 7.31527619,8.22918095 C7.04890667,8.57144381 6.6679619,8.76190476 6.17241905,8.76190476 C5.59950476,8.76190476 5.25725714,8.57142857 4.99085714,8.22918095 Z M7.12331429,11.3526857 L6.05634286,11.3526857 L9.63668571,4.68601905 L10.7036571,4.68601905 L7.12331429,11.3526857 Z M11.8094095,10.8958476 C11.54304,11.2381105 11.1620952,11.4285714 10.6665524,11.4285714 C10.1710095,11.4285714 9.79005714,11.2380952 9.52369524,10.8958476 C9.25732571,10.5535848 9.14274286,10.0193524 9.14274286,9.33333333 C9.14274286,7.92411429 9.63828571,7.23809524 10.6665524,7.23809524 C11.1620952,7.23809524 11.5430476,7.42857143 11.8094095,7.77081905 C12.075779,8.1130819 12.2290667,8.64731429 12.2290667,9.33333333 C12.1903771,10.0193524 12.0385905,10.5520762 11.8094095,10.8958476 Z" id="Shape"></path>
        </g>
    </g>
</svg>