<?xml version="1.0" encoding="UTF-8"?>
<svg width="16px" height="16px" viewBox="0 0 16 16" version="1.1" xmlns="http://www.w3.org/2000/svg" xmlns:xlink="http://www.w3.org/1999/xlink">
    <!-- Generator: Sketch 51.2 (57519) - http://www.bohemiancoding.com/sketch -->
    <title>doortodoor_grey</title>
    <desc>Created with Sketch.</desc>
    <defs></defs>
    <g id="UI-Design" stroke="none" stroke-width="1" fill="none" fill-rule="evenodd">
        <g id="doortodoor_grey" fill="#A9AEB5" fill-rule="nonzero">
            <path d="M5.59921569,5.50917647 C5.49688784,4.60415686 4.77996863,3.92156863 3.93254902,3.92156863 L2.264,3.92156863 C1.41719216,3.92156863 0.699654902,4.60417255 0.597333333,5.50917647 L0.16412549,9.30509804 C0.127973333,9.62249412 0.226012549,9.93807059 0.432501961,10.1696784 C0.610196078,10.3694275 0.84732549,10.4852392 1.10345098,10.4999529 L1.46436078,15.3835608 C1.4784538,15.5545098 1.61999843,15.6862588 1.79156078,15.6862588 L4.40614902,15.6862588 C4.57709804,15.6862588 4.71865098,15.5545192 4.73212549,15.3835608 L5.09303529,10.4999529 C5.34977255,10.4858598 5.5862902,10.3694384 5.76398431,10.1696784 C5.97047843,9.9380549 6.06851765,9.62249412 6.03236078,9.30509804 L5.59921569,5.50917647 Z M3.09866667,3.26776471 C4.00123922,3.26776471 4.73286275,2.53614118 4.73286275,1.63356863 C4.73286275,0.731607843 4.00062745,3.63011216e-16 3.09866667,3.63011216e-16 C2.19609412,3.63011216e-16 1.46447059,0.731623529 1.46447059,1.63419608 C1.46447059,2.53676863 2.19609412,3.26776471 3.09866667,3.26776471 Z M14.4326275,1.40966611e-16 C14.2396078,1.40966611e-16 14.0527216,0.0386023529 13.8756392,0.114583529 L10.1630118,1.70595608 C9.64401569,1.92838745 9.30823529,2.43757961 9.30823529,3.00252078 L9.30823529,14.2751482 C9.30823529,15.0527169 9.94181961,15.6863012 10.7193882,15.6863012 C10.9124078,15.6863012 11.0992941,15.6476988 11.2763765,15.5717176 L14.9896314,13.9803451 C15.5086275,13.7579137 15.8444078,13.2487216 15.8444078,12.6837804 L15.8437951,1.41115294 C15.8437951,0.633584314 15.2102108,2.09147681e-15 14.4326422,2.09147681e-15 L14.4326275,1.40966611e-16 Z M11.2683922,8.82352941 C11.2683922,9.00367059 11.1219467,9.15011765 10.9418039,9.15011765 C10.7616627,9.15011765 10.6152157,9.00367216 10.6152157,8.82352941 L10.6152157,7.51654902 C10.6152157,7.33640784 10.7616612,7.18996078 10.9418039,7.18996078 C11.1219451,7.18996078 11.2683922,7.33640627 11.2683922,7.51654902 L11.2683922,8.82352941 Z M11.0196235,0.626823529 C11.1623937,0.566161569 11.2420549,0.412360784 11.2114196,0.261019608 C11.1795576,0.109058824 11.0459765,-1.56862745e-05 10.890949,-1.56862745e-05 L7.67400784,-1.56862745e-05 C7.13356863,-1.56862745e-05 6.69361569,0.439937255 6.69361569,0.980376471 L6.69361569,12.7450824 C6.69361569,13.2855216 7.13356863,13.7254745 7.67400784,13.7254745 L8.32781176,13.7254745 C8.50795294,13.7254745 8.6544,13.579029 8.6544,13.3988863 L8.6544,3.00249412 C8.6544,2.17590588 9.14581961,1.43072941 9.90624314,1.10414118 L11.0196235,0.626823529 Z" id="Shape"></path>
        </g>
    </g>
</svg>