<?xml version="1.0" encoding="UTF-8"?>
<svg width="16px" height="21px" viewBox="0 0 16 21" version="1.1" xmlns="http://www.w3.org/2000/svg" xmlns:xlink="http://www.w3.org/1999/xlink">
    <!-- Generator: Sketch 51.2 (57519) - http://www.bohemiancoding.com/sketch -->
    <title>payments_grey</title>
    <desc>Created with Sketch.</desc>
    <defs></defs>
    <g id="UI-Design" stroke="none" stroke-width="1" fill="none" fill-rule="evenodd">
        <g id="payments_grey" fill="#A9AEB5" fill-rule="nonzero">
            <path d="M15.9788052,5.81818182 L15.9577018,5.73538909 C15.9163055,5.61038961 15.8538057,5.50648519 15.771013,5.42370078 L10.7636364,0.353155325 C10.7011366,0.290655584 10.6386369,0.249259221 10.5558442,0.207862857 L10.2855481,0.12507013 L2.36824935,0.103966753 C1.0801039,0.103966753 0.0411844156,1.14292779 0.0411844156,2.43103169 L0.0411844156,17.7451096 C0.0411844156,19.0332551 1.08014545,20.0721745 2.36824935,20.0721745 L13.6717299,20.0721745 C14.9598753,20.0721745 15.9987948,19.0332135 15.9987948,17.7451096 L15.9996064,6.02604468 L15.9788052,5.81818182 Z M10.8051948,2.784 L13.4237922,5.44394805 L11.4708779,5.44394805 C11.1177974,5.44394805 10.8263896,5.15337143 10.8263896,4.79945974 L10.8263896,2.78404156 L10.8051948,2.784 Z M5.85953247,10.2441558 C5.46505974,10.4730597 5.02836364,10.5972364 4.52999481,10.5972364 C3.07544935,10.5972364 1.9113974,9.41298701 1.9113974,7.97863896 C1.9113974,6.54520519 3.09564675,5.36004156 4.52999481,5.36004156 C4.98697143,5.36004156 5.40255584,5.48504104 5.77674805,5.67172987 C6.19233247,5.42254545 6.67042078,5.25614545 7.1899013,5.25614545 C8.66555844,5.25614545 9.84984935,6.44039481 9.84984935,7.91609351 C9.84903771,9.39175065 8.66478961,10.5970286 7.1899013,10.5970286 C6.71181299,10.5970286 6.25483636,10.4720291 5.85955325,10.2439481 L5.85953247,10.2441558 Z M13.7556364,17.4956883 L10.5974026,17.4956883 L10.5974026,16.7270234 L13.7556364,16.7270234 L13.7556364,17.4956883 Z M13.7556364,15.4591584 L7.85475325,15.4591584 L7.85475325,14.6904935 L13.7556364,14.6904935 L13.7556364,15.4591584 Z M13.7556364,13.5062442 L7.85475325,13.5062442 L7.85475325,12.7375792 L13.7556364,12.7375792 L13.7556364,13.5062442 Z" id="Shape"></path>
            <path d="M4.98701299,6.44155844 C4.84172052,6.40016208 4.67532468,6.3790587 4.53003636,6.3790587 C3.63636364,6.3790587 2.9302026,7.10633143 2.9302026,7.97889247 C2.9302026,8.85145351 3.65747532,9.57872623 4.53003636,9.57872623 C4.71672519,9.57872623 4.88311688,9.55762286 5.04951688,9.49593351 C4.73782857,9.0592374 4.53003636,8.51947636 4.53003636,7.93749195 C4.53003636,7.39771013 4.69643221,6.87822961 4.98701299,6.44155429 L4.98701299,6.44155844 Z" id="Shape"></path>
            <path d="M7.45932468,6.75324675 L7.45932468,6.64935065 C7.45932468,6.54545455 7.37653195,6.46266182 7.27263584,6.46266182 C7.16873974,6.46266182 7.08594701,6.54545455 7.08594701,6.64935065 L7.08594701,6.75324675 C6.79537039,6.83603948 6.56646649,7.10632727 6.56646649,7.41801558 C6.56646649,7.7297039 6.7742587,8 7.08594701,8.08278442 L7.08594701,8.72727273 C6.96094753,8.66477299 6.81565091,8.5405839 6.7742587,8.47808831 C6.71175896,8.39529558 6.60786286,8.39529558 6.52507429,8.45698494 C6.44228156,8.51948468 6.44228156,8.62338078 6.50397091,8.70616935 C6.54536727,8.74756571 6.77426701,9.01785766 7.08595532,9.10064208 L7.08595532,9.20453818 C7.08595532,9.30843429 7.16874805,9.39122701 7.27264416,9.39122701 C7.37654026,9.39122701 7.45933299,9.30843429 7.45933299,9.20453818 L7.45933299,9.14284883 C7.74990961,9.0600561 7.97881351,8.78976831 7.97881351,8.47808 C7.97881351,8.16639169 7.74990961,7.87581506 7.45933299,7.81331117 L7.45933299,7.14854234 C7.60462545,7.21104208 7.72962909,7.31493818 7.7710213,7.35633455 C7.83352104,7.41883429 7.95771013,7.41883429 8.02020571,7.35633455 C8.08270545,7.29383481 8.08270545,7.16964571 8.02020571,7.10715013 C7.99991356,7.06494338 7.7710213,6.81576312 7.45933299,6.75325922 L7.45932468,6.75324675 Z M7.10624416,7.70942338 C7.00234805,7.64692364 6.93984831,7.54302753 6.93984831,7.41884675 C6.93984831,7.29384727 7.00234805,7.18994286 7.10624416,7.12827013 L7.10624416,7.70942338 Z M7.62572468,8.4569974 C7.62572468,8.58199688 7.56322494,8.6859013 7.45932883,8.74757403 L7.45932883,8.16558961 C7.56322494,8.22890182 7.62572468,8.33279792 7.62572468,8.45697662 L7.62572468,8.4569974 Z" id="Shape"></path>
        </g>
    </g>
</svg>