<?xml version="1.0" encoding="UTF-8"?>
<svg width="22px" height="16px" viewBox="0 0 22 16" version="1.1" xmlns="http://www.w3.org/2000/svg" xmlns:xlink="http://www.w3.org/1999/xlink">
    <!-- Generator: Sketch 51.2 (57519) - http://www.bohemiancoding.com/sketch -->
    <title>personal_shopper_grey</title>
    <desc>Created with Sketch.</desc>
    <defs></defs>
    <g id="UI-Design" stroke="none" stroke-width="1" fill="none" fill-rule="evenodd">
        <g id="personal_shopper_grey" fill="#A9AEB5" fill-rule="nonzero">
            <path d="M21.1891892,12.8538378 L21.1891892,13.9112649 C21.1891892,14.9864432 20.3175784,15.8572108 19.2432432,15.8572108 L1.94594595,15.8572108 C0.871610811,15.8572108 0,14.9864432 0,13.9112649 L0,12.8538378 C0,12.7347503 0.0971286486,12.6376216 0.216216216,12.6376216 L1.46367568,12.6376216 L1.46367568,1.92648649 C1.46536497,0.944216216 2.26097297,0.146918919 3.24324324,0.145232432 L17.9459459,0.145232432 C18.9299027,0.145232432 19.7288865,0.94252973 19.7297297,1.92648649 L19.7297297,6.05405405 L17.1502703,4.95608649 L17.1502703,2.71954595 L4.0387027,2.71954595 L4.0387027,12.6291676 L8.27005405,12.6291676 C8.37985081,12.6291676 8.48542486,12.6730854 8.56397838,12.7507892 C8.64168216,12.828493 8.6856,12.934067 8.6856,13.0438703 L8.6856,13.3192 C8.6856,13.4332195 8.73036324,13.5438703 8.81144432,13.6249514 C8.89252541,13.7060324 9.00316757,13.7516411 9.11803892,13.7516411 L12.0622551,13.7516411 C12.17712,13.7516411 12.2869254,13.7060324 12.3680065,13.6249514 C12.4490876,13.5438703 12.4946962,13.4332281 12.4946962,13.3192 L12.4946962,13.0438703 C12.4946962,12.8149838 12.6805081,12.6291676 12.9102422,12.6291676 L17.1500259,12.6291676 L17.1500259,10.8344 C17.6424151,11.0421708 18.2108259,10.9492649 18.6111719,10.5945297 L18.8966422,10.8816865 C19.1204692,11.1055135 19.4101557,11.2524541 19.722653,11.2997622 L19.722653,12.6316973 L20.9726422,12.6316973 C21.0309189,12.6308528 21.087507,12.655347 21.1280476,12.6967308 C21.1685881,12.73896 21.190547,12.7955481 21.1888584,12.8538249 L21.1891892,12.8538378 Z M19.8006703,7.24324324 L16.3615351,5.78378378 C16.3184605,5.76520259 16.2728519,5.75591135 16.2272454,5.75591135 C16.1132259,5.75591135 16.006813,5.8133427 15.9443049,5.9087827 C15.88096,6.0042227 15.8708259,6.12415351 15.9155892,6.22889081 L17.3750486,9.66889081 C17.4181232,9.77108757 17.5093384,9.84541189 17.6182919,9.86652541 C17.7272454,9.88848432 17.8395676,9.85385665 17.9181189,9.77531027 L18.6140757,9.08106162 L19.6563027,10.1232886 C19.7314724,10.22464 19.8480259,10.2879849 19.9738811,10.2964303 C20.0997254,10.3048761 20.223027,10.2575784 20.3117189,10.1680519 C20.3995568,10.07768 20.44432,9.95352432 20.4341859,9.82768432 C20.4232063,9.70184 20.3573276,9.58697081 20.255133,9.51350054 L19.2129059,8.47127351 L19.9071546,7.78377081 C19.9848584,7.70522378 20.0186422,7.59373622 19.9975265,7.48563027 C19.9764117,7.37752216 19.9029319,7.28630486 19.8007351,7.24323027 L19.8006703,7.24324324 Z" id="Shape"></path>
        </g>
    </g>
</svg>