<?xml version="1.0" encoding="UTF-8"?>
<svg width="16px" height="16px" viewBox="0 0 16 16" version="1.1" xmlns="http://www.w3.org/2000/svg" xmlns:xlink="http://www.w3.org/1999/xlink">
    <!-- Generator: Sketch 51.2 (57519) - http://www.bohemiancoding.com/sketch -->
    <title>ship_shop_tools_grey</title>
    <desc>Created with Sketch.</desc>
    <defs></defs>
    <g id="UI-Design" stroke="none" stroke-width="1" fill="none" fill-rule="evenodd">
        <g id="ship_shop_tools_grey" fill="#A9AEB5" fill-rule="nonzero">
            <path d="M9.55045161,0.190451613 L15.0554839,0.323514839 C15.3236387,0.330571355 15.5423742,0.542265806 15.5585032,0.810405161 L15.8851097,6.52317935 C15.8931742,6.67035613 15.8387381,6.81350194 15.7349084,6.91832774 L6.95658581,15.6956181 C6.7549729,15.897231 6.42835355,15.897231 6.22675355,15.6956181 L0.388043871,9.85690839 C0.186430968,9.65529548 0.186430968,9.32766968 0.388043871,9.12707613 L9.17230194,0.341785806 C9.27210065,0.241987097 9.40919742,0.186544516 9.55031484,0.190575484 L9.55045161,0.190451613 Z M12.6451613,4.51612903 C13.2862968,4.51612903 13.8064516,3.99597419 13.8064516,3.35483871 C13.8064516,2.71370323 13.2862968,2.19354839 12.6451613,2.19354839 C12.0040258,2.19354839 11.483871,2.71370323 11.483871,3.35483871 C11.483871,3.99597419 12.0040258,4.51612903 12.6451613,4.51612903 Z" id="Shape"></path>
        </g>
    </g>
</svg>